PathFileType	4	(X/Y/Z)	/Users/niels/Desktop/University/Third Semester/Perception and Action/Exam/Gymnastics Motion Tracking/Code for Gym Tracking/Analyzed Data/Webcam_Backflip/id8_4_pure_Sports2D/id8_4_pure_Sports2D_px_person00.trc
DataRate	CameraRate	NumFrames	NumMarkers	Units	OrigDataRate	OrigDataStartFrame	OrigNumFrames
29.81132075471698	29.81132075471698	8	22	m	29.81132075471698	59	159
Frame#	Time	Hip			RHip			RKnee			RAnkle			RBigToe			RSmallToe			RHeel			LHip			LKnee			LAnkle			LBigToe			LSmallToe			LHeel			Neck			Head			Nose			RShoulder			RElbow			RWrist			LShoulder			LElbow			LWrist		
		X1	Y1	Z1	X2	Y2	Z2	X3	Y3	Z3	X4	Y4	Z4	X5	Y5	Z5	X6	Y6	Z6	X7	Y7	Z7	X8	Y8	Z8	X9	Y9	Z9	X10	Y10	Z10	X11	Y11	Z11	X12	Y12	Z12	X13	Y13	Z13	X14	Y14	Z14	X15	Y15	Z15	X16	Y16	Z16	X17	Y17	Z17	X18	Y18	Z18	X19	Y19	Z19	X20	Y20	Z20	X21	Y21	Z21	X22	Y22	Z22
59	1.9791139240506328	0.8933746496906805	-0.4803402603063499	0.0	0.8965729603724881	-0.4804443393899385	0.0	0.9212005979003361	-0.5731400446529924	0.0	0.9083444365318325	-0.6775162789125706	0.0	0.931875607277678	-0.7124595020808859	0.0	0.9237425172303552	-0.7131428063991455	0.0	0.8977739043601103	-0.691158095903472	0.0	0.8931892770774649	-0.47895601524869996	0.0	0.9180322041346574	-0.5734806476248568	0.0	0.9037644573117944	-0.672242806261441	0.0	0.9321476925111847	-0.7046631378265612	0.0	0.9250597631723085	-0.6985159782276616	0.0	0.8899497968896949	-0.682391650742633	0.0	0.9088145040920538	-0.3499359977204824	0.0	0.9245459183726591	-0.2862781313140311	0.0	0.931292022287194	-0.3130170381204831	0.0	0.9086608800003977	-0.35579837695016403	0.0	0.9476384423381443	-0.3107879235095161	0.0	0.97290014138274	-0.263793696015871	0.0	0.9065590650000405	-0.35223045533151004	0.0	0.9479480926675995	-0.30724834248836774	0.0	0.9700479294890324	-0.26234816772273317	0.0
60	2.0126582278481013	0.8941488260423581	-0.4679913149499205	0.0	0.8972769629573037	-0.46816186616287325	0.0	0.9184050472830512	-0.562276426524625	0.0	0.9111019200086539	-0.6669393208069773	0.0	0.9343615936029874	-0.7023907656087038	0.0	0.9256330212401442	-0.7029910320663316	0.0	0.9010700041077578	-0.6807118561351793	0.0	0.8936375908466008	-0.46654664119283723	0.0	0.9150966654144094	-0.5624334453775901	0.0	0.9059299471536026	-0.661689066770759	0.0	0.9334867193637405	-0.6936374675693143	0.0	0.9260393911462653	-0.6875657608685413	0.0	0.8929542227885139	-0.6722417407598115	0.0	0.9088610496365717	-0.33596905289649504	0.0	0.9237842097857756	-0.27259870597821584	0.0	0.931571890403734	-0.299488966513643	0.0	0.9091620699039459	-0.3427177666894315	0.0	0.9486435701645409	-0.2990297523899499	0.0	0.9746522219619411	-0.24958944048978843	0.0	0.9074431697292487	-0.33947870609638303	0.0	0.949043319910504	-0.2954036914373654	0.0	0.9726208164579719	-0.24926498907571026	0.0
61	2.0462025316455694	0.8949704345593025	-0.4594656143398747	0.0	0.8980031759043084	-0.45953647590184676	0.0	0.9167022434570314	-0.5552818656069477	0.0	0.9131155605585377	-0.6596069014862715	0.0	0.9366478235176263	-0.6950812085352438	0.0	0.9275547758366331	-0.6957932641270462	0.0	0.903575024317622	-0.6733957245408866	0.0	0.8942221103951128	-0.45776263104605674	0.0	0.9126964891941551	-0.5550980669634591	0.0	0.9060295882487214	-0.654215931698715	0.0	0.9330395915258415	-0.6857856889506172	0.0	0.9251565508496242	-0.6798082576014172	0.0	0.8938620910182792	-0.6649642417312873	0.0	0.9090351225725245	-0.3262310599305645	0.0	0.9231058195173045	-0.26332803854306475	0.0	0.9318756933635364	-0.2903432024813397	0.0	0.9096085506457895	-0.33362111668071975	0.0	0.9492729953744193	-0.2901036501035439	0.0	0.9759770950494517	-0.238069917596708	0.0	0.9085137769588718	-0.33059067571895984	0.0	0.9495248935577785	-0.28735174616851283	0.0	0.9744014563096814	-0.2396953927475887	0.0
62	2.079746835443038	0.8958493533995501	-0.4547072549729531	0.0	0.8987132633568838	-0.4546198493471654	0.0	0.9162858546592663	-0.5521824314521371	0.0	0.9151561090959343	-0.6558080908268917	0.0	0.9394182982292876	-0.6907874052017958	0.0	0.9302621219181944	-0.6919040483919097	0.0	0.9061559248066516	-0.6697066493344083	0.0	0.8950853626572727	-0.4526384190765957	0.0	0.9105230571555415	-0.551504623444826	0.0	0.9036425636652544	-0.6499394549465242	0.0	0.9298689433008365	-0.6815333551697387	0.0	0.921660885309551	-0.6755977514717678	0.0	0.892116838350824	-0.660642631488594	0.0	0.9094156442826851	-0.3206548091104432	0.0	0.9216874499512578	-0.25850677966993785	0.0	0.9317658471571	-0.2853856276480688	0.0	0.9098427083011015	-0.32844635692011637	0.0	0.9494031856717778	-0.2838282232866124	0.0	0.9765325845017102	-0.22973535138304438	0.0	0.9099627019578878	-0.3254345109783818	0.0	0.949952236322409	-0.28285720212306237	0.0	0.9757780856922413	-0.23391461066814306	0.0
63	2.113291139240506	0.8968285879600928	-0.45372159636030013	0.0	0.8994707679709044	-0.45351602400514357	0.0	0.917061177204057	-0.5530675358573804	0.0	0.9178715137905702	-0.6558249404822021	0.0	0.9431274832495146	-0.6896159296864304	0.0	0.934161876441299	-0.6914151504181626	0.0	0.909636203417882	-0.6700627210706166	0.0	0.8962249256699366	-0.4512697683224051	0.0	0.9080850503894008	-0.5517146253124662	0.0	0.8985583109982405	-0.649005207388333	0.0	0.9230913404566932	-0.6809708235168148	0.0	0.9148855259399883	-0.6750682075957443	0.0	0.8875693258920293	-0.6594425180472826	0.0	0.9100655531271229	-0.3191804469640012	0.0	0.9192425977526036	-0.25815662037428894	0.0	0.9309781906401132	-0.2845734741560182	0.0	0.9097255693561999	-0.32718393631249554	0.0	0.9489502464497499	-0.2802725944085992	0.0	0.9760313259429696	-0.22496774090055277	0.0	0.9117730000054262	-0.3240198783108006	0.0	0.950606837352193	-0.2817646200921032	0.0	0.9768210344610752	-0.23212830333571596	0.0
64	2.1468354430379746	0.8979843414484914	-0.45660331099514656	0.0	0.9004722242307007	-0.45633250199848274	0.0	0.918732352032681	-0.5579876162006314	0.0	0.9213915797705253	-0.659861725569732	0.0	0.9476898215646669	-0.6916855021631909	0.0	0.9390475981034527	-0.6943060835455516	0.0	0.9141843190020595	-0.6746368818978976	0.0	0.8974222193002709	-0.45378103638378287	0.0	0.9050007001555049	-0.5557498110933827	0.0	0.8908041855798658	-0.6515311060164739	0.0	0.9123979650766276	-0.6839421159512779	0.0	0.9045478978008699	-0.6781282205066459	0.0	0.8803562317519151	-0.6615901394487355	0.0	0.9109575999784552	-0.32190208815648025	0.0	0.9164238804174089	-0.26226526624662544	0.0	0.9296583517034478	-0.2880370480418634	0.0	0.9092799523186568	-0.3298785174641917	0.0	0.947967989757294	-0.2798260444972875	0.0	0.9744811107525314	-0.22409567016508797	0.0	0.9135786549016514	-0.32647304798678345	0.0	0.9512731218861412	-0.2840804419758971	0.0	0.977189187334691	-0.2345293192429828	0.0
65	2.180379746835443	0.8993982544137991	-0.46353200631547775	0.0	0.9019725378605284	-0.4632154414144121	0.0	0.9209211828038582	-0.5668679099501068	0.0	0.9252230161514587	-0.6679968716049995	0.0	0.9524339408197708	-0.6972841906826514	0.0	0.9441594525857553	-0.7006505023858477	0.0	0.919044972295117	-0.6833431484892694	0.0	0.8983877852614085	-0.4603454803314068	0.0	0.9012540408980069	-0.5635879269986379	0.0	0.8807398790874955	-0.6575526424211801	0.0	0.8984367162182428	-0.6903062392062276	0.0	0.8911240242410643	-0.6846287772142023	0.0	0.8707844879240866	-0.6672469792079516	0.0	0.911949033606464	-0.32900858522593446	0.0	0.9143570611346639	-0.27069833447853126	0.0	0.9283005432841851	-0.29592883478467386	0.0	0.908677471301823	-0.3366222650495479	0.0	0.9466680254411324	-0.2830751204604176	0.0	0.9722014105823864	-0.22748112271700718	0.0	0.9147957647125345	-0.3329886553762944	0.0	0.9513232728938532	-0.2899565995856408	0.0	0.9762172489337528	-0.2412464863353664	0.0
66	2.213924050632911	0.9011059652112089	-0.4747072966316749	0.0	0.9041318884043369	-0.4743575835978274	0.0	0.9232755426481143	-0.5795401711651526	0.0	0.9285341033498069	-0.6802429692323142	0.0	0.9563193238683168	-0.7067534039548399	0.0	0.9484949922804302	-0.7106151116938085	0.0	0.9229696579368597	-0.6960350669716935	0.0	0.898988868766209	-0.47118258914570377	0.0	0.8971852912604389	-0.575204240640546	0.0	0.8690879420104334	-0.6670236274704358	0.0	0.8825417665771107	-0.7000199172582927	0.0	0.8757735862810407	-0.6944823657464345	0.0	0.8594320689706556	-0.6764053857635475	0.0	0.9128569360924957	-0.34051446379249706	0.0	0.9138372192161424	-0.2830918845924218	0.0	0.9274991451083808	-0.3081909013302545	0.0	0.9081468588719294	-0.34744773953729274	0.0	0.9453203030318899	-0.29046181003290267	0.0	0.9695814382307903	-0.23536163504609253	0.0	0.914950949045309	-0.34369210347693074	0.0	0.9501132692582577	-0.2995545870963311	0.0	0.9731909317355103	-0.2522170303634686	0.0
